# Blender 3.5.1
# www.blender.org
mtllib 3D_2.1.mtl
o 2.1
v -0.300000 0.240000 -0.910000
v -0.290000 0.240000 -0.910000
v -0.300000 1.090000 -0.910000
v -0.290000 1.090000 -0.910000
v -0.300000 0.240000 -1.390000
v -0.300000 1.090000 -1.390000
v -0.290000 0.240000 -1.390000
v -0.290000 1.090000 -1.390000
v -0.300000 0.240000 -0.410000
v -0.290000 0.240000 -0.410000
v -0.300000 1.090000 -0.410000
v -0.290000 1.090000 -0.410000
v -0.300000 0.240000 -0.890000
v -0.300000 1.090000 -0.890000
v -0.290000 0.240000 -0.890000
v -0.290000 1.090000 -0.890000
v -0.300000 0.240000 0.090000
v -0.290000 0.240000 0.090000
v -0.300000 1.090000 0.090000
v -0.290000 1.090000 0.090000
v -0.300000 0.240000 -0.390000
v -0.300000 1.090000 -0.390000
v -0.290000 0.240000 -0.390000
v -0.290000 1.090000 -0.390000
v -0.300000 0.240000 0.590000
v -0.290000 0.240000 0.590000
v -0.300000 1.090000 0.590000
v -0.290000 1.090000 0.590000
v -0.300000 0.240000 0.110000
v -0.300000 1.090000 0.110000
v -0.290000 0.240000 0.110000
v -0.290000 1.090000 0.110000
v 0.200000 1.100000 0.150000
v -0.240000 1.100000 0.150000
v 0.200000 0.850000 0.150000
v -0.240000 0.850000 0.150000
v -0.240000 1.100000 0.550000
v -0.240000 0.850000 0.550000
v 0.200000 1.100000 0.550000
v 0.200000 0.850000 0.550000
v -0.290000 0.230000 -1.400000
v -0.290000 1.100000 -1.400000
v -0.290000 1.100000 0.600000
v -0.290000 0.230000 0.600000
v 0.300000 1.100000 0.600000
v 0.300000 1.100000 -1.400000
v -0.270000 0.230000 -1.400000
v -0.270000 0.230000 0.600000
v -0.270000 0.200000 0.600000
v 0.300000 0.200000 0.600000
v -0.270000 0.200000 -1.400000
v -0.300000 0.200000 -1.400000
v -0.300000 0.200000 1.400000
v 0.300000 0.200000 1.400000
v 0.300000 2.626004 1.400000
v -0.300000 2.626004 1.400000
v 0.300000 3.247537 -0.632944
v -0.300000 3.247537 -0.632944
v 0.300000 3.013025 -1.400000
v -0.300000 3.013025 -1.400000
v -0.300000 3.456676 -0.632944
v -0.300000 2.804569 1.500000
v 0.300000 3.456676 -0.632944
v 0.300000 2.804569 1.500000
v -0.300000 3.191590 -1.500000
v 0.300000 3.191590 -1.500000
v -0.300000 0.000000 -1.500000
v 0.300000 0.000000 -1.500000
v -0.300000 0.000000 1.500000
v 0.300000 0.000000 1.500000
vn -0.0000 -0.0000 1.0000
vn -1.0000 -0.0000 -0.0000
vn -0.0000 -0.0000 -1.0000
vn -0.0000 -1.0000 -0.0000
vn -0.0000 1.0000 -0.0000
vn 1.0000 -0.0000 -0.0000
vn -0.0000 -0.9563 -0.2924
vn -0.0000 -0.9563 0.2924
vn -0.0000 0.9563 0.2924
vn -0.0000 0.9563 -0.2924
s 0
f 1//1 2//1 3//1
f 3//1 2//1 4//1
f 5//2 1//2 6//2
f 6//2 1//2 3//2
f 7//3 5//3 8//3
f 8//3 5//3 6//3
f 7//4 2//4 5//4
f 5//4 2//4 1//4
f 4//5 8//5 3//5
f 3//5 8//5 6//5
f 9//1 10//1 11//1
f 11//1 10//1 12//1
f 13//2 9//2 14//2
f 14//2 9//2 11//2
f 15//3 13//3 16//3
f 16//3 13//3 14//3
f 15//4 10//4 13//4
f 13//4 10//4 9//4
f 12//5 16//5 11//5
f 11//5 16//5 14//5
f 17//1 18//1 19//1
f 19//1 18//1 20//1
f 21//2 17//2 22//2
f 22//2 17//2 19//2
f 23//3 21//3 24//3
f 24//3 21//3 22//3
f 23//4 18//4 21//4
f 21//4 18//4 17//4
f 20//5 24//5 19//5
f 19//5 24//5 22//5
f 25//1 26//1 27//1
f 27//1 26//1 28//1
f 29//2 25//2 30//2
f 30//2 25//2 27//2
f 31//3 29//3 32//3
f 32//3 29//3 30//3
f 31//4 26//4 29//4
f 29//4 26//4 25//4
f 28//5 32//5 27//5
f 27//5 32//5 30//5
f 33//1 34//1 35//1
f 35//1 34//1 36//1
f 34//6 37//6 36//6
f 36//6 37//6 38//6
f 37//3 39//3 38//3
f 38//3 39//3 40//3
f 39//2 33//2 40//2
f 40//2 33//2 35//2
f 40//5 35//5 38//5
f 38//5 35//5 36//5
f 2//2 7//2 41//2
f 41//2 7//2 8//2
f 41//2 8//2 42//2
f 42//2 8//2 4//2
f 42//2 4//2 16//2
f 16//2 4//2 15//2
f 15//2 4//2 2//2
f 15//2 2//2 41//2
f 16//2 12//2 42//2
f 42//2 12//2 24//2
f 42//2 24//2 43//2
f 43//2 24//2 20//2
f 43//2 20//2 32//2
f 32//2 20//2 31//2
f 31//2 20//2 18//2
f 31//2 18//2 44//2
f 44//2 18//2 23//2
f 44//2 23//2 10//2
f 10//2 23//2 12//2
f 12//2 23//2 24//2
f 44//2 10//2 41//2
f 41//2 10//2 15//2
f 32//2 28//2 43//2
f 43//2 28//2 44//2
f 44//2 28//2 26//2
f 44//2 26//2 31//2
f 33//5 42//5 34//5
f 34//5 42//5 43//5
f 34//5 43//5 37//5
f 37//5 43//5 39//5
f 39//5 43//5 45//5
f 39//5 45//5 33//5
f 33//5 45//5 46//5
f 33//5 46//5 42//5
f 47//4 48//4 41//4
f 41//4 48//4 44//4
f 49//1 50//1 48//1
f 48//1 50//1 45//1
f 48//1 45//1 43//1
f 43//1 44//1 48//1
f 51//2 49//2 47//2
f 47//2 49//2 48//2
f 51//5 52//5 49//5
f 49//5 52//5 53//5
f 49//5 53//5 54//5
f 54//5 50//5 49//5
f 55//3 54//3 56//3
f 56//3 54//3 53//3
f 57//7 55//7 58//7
f 58//7 55//7 56//7
f 59//8 57//8 60//8
f 60//8 57//8 58//8
f 46//1 59//1 42//1
f 42//1 59//1 60//1
f 42//1 60//1 52//1
f 42//1 52//1 41//1
f 41//1 52//1 51//1
f 41//1 51//1 47//1
f 61//9 62//9 63//9
f 63//9 62//9 64//9
f 65//10 61//10 66//10
f 66//10 61//10 63//10
f 67//3 65//3 68//3
f 68//3 65//3 66//3
f 69//4 67//4 70//4
f 70//4 67//4 68//4
f 62//1 69//1 64//1
f 64//1 69//1 70//1
f 60//2 58//2 61//2
f 61//2 58//2 56//2
f 61//2 56//2 62//2
f 62//2 56//2 53//2
f 62//2 53//2 69//2
f 69//2 53//2 67//2
f 67//2 53//2 52//2
f 67//2 52//2 65//2
f 65//2 52//2 60//2
f 65//2 60//2 61//2
f 57//6 63//6 55//6
f 55//6 63//6 64//6
f 55//6 64//6 54//6
f 54//6 64//6 70//6
f 54//6 70//6 50//6
f 50//6 70//6 68//6
f 50//6 68//6 46//6
f 46//6 68//6 66//6
f 46//6 66//6 59//6
f 59//6 66//6 63//6
f 59//6 63//6 57//6
f 46//6 45//6 50//6
