# Blender 3.5.1
# www.blender.org
mtllib 3D_5.2_SIM.mtl
o 3D_5.2_SIM
v -0.050000 2.804569 -1.500000
v -0.050000 3.456676 0.632944
v 0.050000 2.804569 -1.500000
v 0.050000 3.456676 0.632944
v -0.050000 3.191590 1.500000
v 0.050000 3.191590 1.500000
v -0.050000 0.000000 1.500000
v 0.050000 0.000000 1.500000
v -0.050000 0.000000 -1.500000
v 0.050000 0.000000 -1.500000
vn -0.0000 0.9563 -0.2924
vn -0.0000 0.9563 0.2924
vn -0.0000 -0.0000 1.0000
vn -0.0000 -1.0000 -0.0000
vn -0.0000 -0.0000 -1.0000
vn -1.0000 -0.0000 -0.0000
vn 1.0000 -0.0000 -0.0000
s 0
f 1//1 2//1 3//1
f 3//1 2//1 4//1
f 2//2 5//2 4//2
f 4//2 5//2 6//2
f 5//3 7//3 6//3
f 6//3 7//3 8//3
f 7//4 9//4 8//4
f 8//4 9//4 10//4
f 9//5 1//5 10//5
f 10//5 1//5 3//5
f 9//6 7//6 1//6
f 1//6 7//6 2//6
f 2//6 7//6 5//6
f 10//7 3//7 8//7
f 8//7 3//7 4//7
f 8//7 4//7 6//7
