# Blender 3.5.1
# www.blender.org
mtllib 3D_7.1.mtl
o 3D_7.1
v 0.230000 0.220000 -0.255000
v 0.230000 0.220000 0.255000
v 0.230000 2.280000 -0.255000
v 0.230000 2.280000 0.255000
v -0.250000 0.220000 0.255000
v -0.250000 2.280000 0.255000
v -0.250000 0.220000 -0.255000
v -0.250000 2.280000 -0.255000
v 0.250000 0.200000 0.275000
v 0.250000 0.200000 -0.275000
v 0.250000 2.300000 0.275000
v 0.250000 2.300000 -0.275000
v -0.250000 0.200000 0.275000
v -0.250000 2.300000 0.275000
v -0.250000 0.200000 -0.275000
v -0.250000 2.300000 -0.275000
vn -1.0000 -0.0000 -0.0000
vn -0.0000 -0.0000 -1.0000
vn -0.0000 -0.0000 1.0000
vn -0.0000 -1.0000 -0.0000
vn -0.0000 1.0000 -0.0000
vn 1.0000 -0.0000 -0.0000
s 0
f 1//1 2//1 3//1
f 3//1 2//1 4//1
f 2//2 5//2 4//2
f 4//2 5//2 6//2
f 7//3 1//3 8//3
f 8//3 1//3 3//3
f 8//4 3//4 6//4
f 6//4 3//4 4//4
f 1//5 7//5 2//5
f 2//5 7//5 5//5
f 9//6 10//6 11//6
f 11//6 10//6 12//6
f 13//3 9//3 14//3
f 14//3 9//3 11//3
f 8//1 15//1 7//1
f 7//1 15//1 13//1
f 7//1 13//1 5//1
f 5//1 13//1 6//1
f 6//1 13//1 14//1
f 6//1 14//1 16//1
f 15//1 8//1 16//1
f 16//1 8//1 6//1
f 10//2 15//2 12//2
f 12//2 15//2 16//2
f 15//4 10//4 13//4
f 13//4 10//4 9//4
f 12//5 16//5 11//5
f 11//5 16//5 14//5
