# This file uses centimeters as units for non-parametric coordinates.

mtllib Prueba.mtl
g default
v -400.000000 50.000000 1400.000000
v -400.000000 0.000000 1400.000000
v -400.000000 0.000000 1500.000000
v -400.000000 2654.570068 1500.000000
v -400.000000 2558.939941 1470.762800
v -400.000000 2580.570068 1400.000000
v -400.000000 50.000000 -1400.000000
v -400.000000 0.000000 -1400.000000
v 400.000000 50.000000 1400.000000
v 400.000000 0.000000 1400.000000
v 400.000000 2580.570068 1400.000000
v 400.000000 2558.939941 1470.762800
v 400.000000 2654.570068 1500.000000
v 400.000000 0.000000 1500.000000
v -400.000000 3266.030029 -500.000000
v -400.000000 3161.580078 -500.000000
v -400.000000 3161.459961 -500.000000
v 400.000000 3266.030029 -500.000000
v 400.000000 0.000000 -1400.000000
v 400.000000 0.000000 -1500.000000
v -400.000000 0.000000 -1500.000000
v 400.000000 2964.449951 -1500.000000
v 400.000000 2868.709961 -1471.129883
v 400.000000 2890.159912 -1400.000000
v 400.000000 50.000000 -1400.000000
v -400.000000 2964.449951 -1500.000000
v -400.000000 2868.709961 -1471.129883
v -400.000000 2890.159912 -1400.000000
v 400.000000 2890.159912 -1400.000000
v -400.000000 2890.159912 -1400.000000
v 400.000000 3161.580078 -500.000000
v 400.000000 3161.459961 -500.000000
vt -3937.020020 1968.500000
vt -3937.020020 0.000000
vt 0.000000 0.000000
vt 0.000000 104511.000000
vt -1151.069946 100746.000000
vt -3937.020020 101597.000000
vt -114173.000000 1968.500000
vt -114173.000000 0.000000
vt -31496.099609 1968.500000
vt -31496.099609 0.000000
vt 0.000000 1968.500000
vt 3937.020020 1968.500000
vt 3937.020020 101597.000000
vt 1151.069946 100746.000000
vt 3937.020020 0.000000
vt 0.000000 101597.000000
vt -31496.099609 101597.000000
vt 0.000000 33469.199219
vt 0.000000 30555.900391
vt 31496.099609 30555.900391
vt 31496.099609 33469.199219
vt -78740.203125 128584.000000
vt -78740.203125 124472.000000
vt -78740.203125 124467.000000
vt 0.000000 99944.000000
vt -31496.099609 99944.000000
vt -31496.099609 96007.000000
vt 0.000000 96007.000000
vt 31496.099609 112894.000000
vt 0.000000 112894.000000
vt 31496.099609 104511.000000
vt 31496.099609 0.000000
vt -31496.099609 3937.020020
vt 0.000000 3937.020020
vt 0.000000 114173.000000
vt -31496.099609 114173.000000
vt -31496.099609 118110.000000
vt 0.000000 118110.000000
vt 118110.000000 116711.000000
vt 116973.000000 112941.000000
vt 114173.000000 113786.000000
vt 114173.000000 1968.500000
vt 114173.000000 0.000000
vt 118110.000000 0.000000
vt -0.000000 145843.000000
vt -0.000000 141906.000000
vt 31496.099609 141906.000000
vt 31496.099609 145843.000000
vt -114173.000000 113786.000000
vt -116973.000000 112941.000000
vt -118110.000000 116711.000000
vt -118110.000000 0.000000
vt 31496.099609 113786.000000
vt 0.000000 113786.000000
vt 31496.099609 1968.500000
vt 0.000000 -76456.101563
vt -31496.099609 -76456.101563
vt -31496.099609 -79380.898438
vt 0.000000 -79380.898438
vt 0.000000 -79381.101563
vt 31496.099609 -79381.101563
vt 31496.099609 -76456.296875
vt 31496.099609 -39446.898438
vt 0.000000 -39446.898438
vt 0.000000 -76456.296875
vt 78740.203125 124472.000000
vt 78740.203125 128584.000000
vt -0.000000 -38259.601563
vt -31496.099609 -38259.601563
vt -31496.099609 -79381.101563
vt -0.000000 -79381.101563
vt -31496.099609 128584.000000
vt -31496.099609 124472.000000
vt 0.000000 124472.000000
vt 0.000000 128584.000000
vt 78740.203125 124467.000000
vt -31496.099609 111690.000000
vt -31496.099609 33469.199219
vt 0.000000 111690.000000
vt -31496.099609 124467.000000
vt 0.000000 124467.000000
vt 0.000000 116711.000000
vt -31496.099609 116711.000000
vt 31496.099609 114173.000000
vt 31496.099609 3937.020020
vt 0.000000 0.000000
vt 0.000000 104511.000000
vt 0.000000 0.000000
vt 0.000000 30555.900391
vt 31496.099609 30555.900391
vt -31496.099609 0.000000
vt 0.000000 113786.000000
vt 0.000000 1968.500000
vt 31496.099609 113786.000000
vt 114173.000000 113786.000000
vt 114173.000000 113786.000000
vt 0.000000 104511.000000
vt -114173.000000 113786.000000
vt -114173.000000 113786.000000
vt 0.000000 0.000000
vt -31496.099609 0.000000
vt 0.000000 114173.000000
vt 0.000000 3937.020020
vt 0.000000 1968.500000
vt 0.000000 0.000000
vt 31496.099609 0.000000
vn -1.000000 0.000000 0.000000
vn -1.000000 0.000000 0.000000
vn -1.000000 0.000000 0.000000
vn -1.000000 0.000000 0.000000
vn -1.000000 0.000000 0.000000
vn -1.000000 0.000000 0.000000
vn -1.000000 0.000000 -0.000000
vn -1.000000 0.000000 -0.000000
vn -1.000000 0.000000 -0.000000
vn -1.000000 0.000000 -0.000000
vn 0.000000 0.000000 -1.000000
vn 0.000000 0.000000 -1.000000
vn 0.000000 0.000000 -1.000000
vn 0.000000 0.000000 -1.000000
vn 1.000000 0.000000 0.000000
vn 1.000000 0.000000 0.000000
vn 1.000000 0.000000 0.000000
vn 1.000000 0.000000 0.000000
vn 1.000000 0.000000 0.000000
vn 1.000000 0.000000 0.000000
vn 0.000000 0.000000 -1.000000
vn 0.000000 0.000000 -1.000000
vn 0.000000 0.000000 -1.000000
vn 0.000000 0.000000 -1.000000
vn 0.000000 0.956305 0.292371
vn 0.000000 0.956305 0.292371
vn 0.000000 0.956305 0.292371
vn 0.000000 0.956305 0.292371
vn -1.000000 0.000000 -0.000000
vn -1.000000 0.000000 -0.000000
vn -1.000000 0.000000 -0.000000
vn -1.000000 0.000000 -0.000000
vn -1.000000 0.000000 -0.000000
vn -1.000000 0.000000 -0.000000
vn 0.000000 0.292372 -0.956305
vn 0.000000 0.292372 -0.956305
vn 0.000000 0.292372 -0.956305
vn 0.000000 0.292372 -0.956305
vn 0.000000 0.956305 0.292372
vn 0.000000 0.956305 0.292372
vn 0.000000 0.956305 0.292372
vn 0.000000 0.956305 0.292372
vn 0.000000 0.000000 1.000000
vn 0.000000 0.000000 1.000000
vn 0.000000 0.000000 1.000000
vn 0.000000 0.000000 1.000000
vn 0.000000 -1.000000 0.000000
vn 0.000000 -1.000000 0.000000
vn 0.000000 -1.000000 0.000000
vn 0.000000 -1.000000 0.000000
vn 0.000000 -1.000000 0.000000
vn 0.000000 -1.000000 0.000000
vn 0.000000 -1.000000 0.000000
vn 0.000000 -1.000000 0.000000
vn 0.000000 -1.000000 0.000000
vn 0.000000 -1.000000 0.000000
vn 0.000000 -1.000000 0.000000
vn 0.000000 -1.000000 0.000000
vn 1.000000 0.000000 0.000000
vn 1.000000 0.000000 0.000000
vn 1.000000 0.000000 0.000000
vn 1.000000 0.000000 0.000000
vn 1.000000 0.000000 0.000000
vn 1.000000 0.000000 0.000000
vn -0.000000 0.288739 0.957408
vn -0.000000 0.288739 0.957408
vn -0.000000 0.288739 0.957408
vn -0.000000 0.288739 0.957408
vn -1.000000 0.000000 -0.000000
vn -1.000000 0.000000 -0.000000
vn -1.000000 0.000000 -0.000000
vn -1.000000 0.000000 -0.000000
vn -1.000000 0.000000 -0.000000
vn -1.000000 0.000000 -0.000000
vn 0.000000 0.000000 1.000000
vn 0.000000 0.000000 1.000000
vn 0.000000 0.000000 1.000000
vn 0.000000 0.000000 1.000000
vn 0.000000 0.000000 1.000000
vn 0.000000 0.000000 1.000000
vn 0.000000 0.957408 -0.288738
vn 0.000000 0.957408 -0.288738
vn 0.000000 0.957408 -0.288738
vn 0.000000 0.957408 -0.288738
vn 1.000000 0.000000 0.000000
vn 1.000000 0.000000 0.000000
vn 1.000000 0.000000 0.000000
vn 0.000000 -0.957408 0.288737
vn 0.000000 -0.957408 0.288737
vn 0.000000 -0.957408 0.288737
vn 0.000000 -0.957408 0.288737
vn 0.000000 -0.957408 0.288737
vn 0.000000 -0.957408 0.288737
vn 1.000000 0.000000 0.000000
vn 1.000000 0.000000 0.000000
vn 1.000000 0.000000 0.000000
vn 1.000000 0.000000 0.000000
vn 1.000000 0.000000 0.000000
vn 1.000000 0.000000 0.000000
vn -0.000000 0.957408 -0.288737
vn -0.000000 0.957408 -0.288737
vn -0.000000 0.957408 -0.288737
vn -0.000000 0.957408 -0.288737
vn 0.000000 0.000000 -1.000000
vn 0.000000 0.000000 -1.000000
vn 0.000000 0.000000 -1.000000
vn 0.000000 0.000000 -1.000000
vn 1.000000 0.000000 0.000000
vn 1.000000 0.000000 0.000000
vn 1.000000 0.000000 0.000000
vn 1.000000 0.000000 0.000000
vn 1.000000 0.000000 0.000000
vn 1.000000 0.000000 0.000000
vn 0.000000 -0.956305 -0.292372
vn 0.000000 -0.956305 -0.292372
vn 0.000000 -0.956305 -0.292372
vn 0.000000 -0.956305 -0.292372
vn 0.000000 0.000000 -1.000000
vn 0.000000 0.000000 -1.000000
vn 0.000000 0.000000 -1.000000
vn 0.000000 0.000000 -1.000000
vn -1.000000 0.000000 -0.000000
vn -1.000000 0.000000 -0.000000
vn -1.000000 0.000000 -0.000000
vn -1.000000 0.000000 -0.000000
vn -1.000000 0.000000 -0.000000
vn -1.000000 0.000000 -0.000000
vn -1.000000 0.000000 -0.000000
vn -1.000000 0.000000 -0.000000
vn -1.000000 0.000000 -0.000000
vn 0.000000 0.000000 -1.000000
vn 0.000000 0.000000 -1.000000
vn 0.000000 0.000000 -1.000000
vn 0.000000 0.000000 -1.000000
vn 0.000000 1.000000 0.000000
vn 0.000000 1.000000 0.000000
vn 0.000000 1.000000 0.000000
vn 0.000000 1.000000 0.000000
vn 0.000000 0.000000 1.000000
vn 0.000000 0.000000 1.000000
vn 0.000000 0.000000 1.000000
vn 0.000000 0.000000 1.000000
vn 1.000000 0.000000 0.000000
vn 1.000000 0.000000 0.000000
vn 1.000000 0.000000 0.000000
vn 1.000000 0.000000 0.000000
s off
g PRUEBA_MODULO_ESPACIO_80CM1:Mesh2Model
usemtl initialShadingGroup
f 1/1/1 2/2/2 3/3/3 4/4/4 5/5/5 6/6/6
f 2/2/7 1/1/8 7/7/9 8/8/10
f 9/9/11 10/10/12 2/86/13 1/11/14
f 9/12/15 11/13/16 12/14/17 13/87/18 14/88/19 10/15/20
f 1/11/21 6/16/22 11/17/23 9/9/24
f 6/18/25 5/19/26 12/20/27 11/21/28
f 5/5/29 4/4/30 15/22/31 16/23/32 17/24/33 6/6/34
f 4/25/35 13/26/36 12/27/37 5/28/38
f 4/89/39 13/90/40 18/29/41 15/30/42
f 13/31/43 4/4/44 3/3/45 14/32/46
f 10/33/47 14/91/48 3/3/49 2/34/50
f 2/34/51 8/35/52 19/36/53 10/33/54
f 20/37/55 19/36/56 8/35/57 21/38/58
f 22/39/59 23/40/60 24/41/61 25/42/62 19/43/63 20/44/64
f 26/45/65 27/46/66 23/47/67 22/48/68
f 7/7/69 28/49/70 27/50/71 26/51/72 21/52/73 8/8/74
f 29/53/75 30/54/76 28/92/77 7/93/78 25/55/79 24/94/80
f 30/56/81 29/57/82 23/58/83 27/59/84
f 24/41/85 23/40/86 29/95/87
f 27/60/88 23/61/89 24/62/90 31/63/91 16/64/92 28/65/93
f 31/66/94 24/41/95 29/96/96 23/40/97 22/39/98 18/67/99
f 15/68/100 18/69/101 22/70/102 26/71/103
f 18/72/104 31/73/105 16/74/106 15/75/107
f 31/66/108 18/67/109 13/97/110 12/14/111 11/13/112 32/76/113
f 32/77/114 11/78/115 6/18/116 17/79/117
f 31/73/118 32/80/119 17/81/120 16/74/121
f 26/51/122 27/50/123 30/98/124 28/49/125 16/23/126 15/22/127
f 27/50/128 28/49/129 30/99/130
f 21/100/131 26/82/132 22/83/133 20/101/134
f 25/84/135 7/102/136 1/103/137 9/85/138
f 7/104/139 8/105/140 19/106/141 25/55/142
f 19/43/143 25/42/144 9/12/145 10/15/146
