# Blender 3.5.1
# www.blender.org
mtllib 3D_2.6_SIM.mtl
o 3D_2.6_SIM
v -0.393405 1.019618 0.542007
v -0.413405 1.019618 0.542007
v -0.393405 1.019618 0.232008
v -0.413405 1.019618 0.232008
v -0.413405 0.900000 0.542007
v -0.393405 0.900000 0.542007
v -0.723405 0.200000 0.562007
v -0.723405 0.200000 0.542007
v -0.723405 0.870000 0.562007
v -0.723405 0.870000 0.542007
v -0.743405 0.200000 0.542007
v -0.743405 0.870000 0.542007
v -0.413405 0.870000 0.562007
v -0.413405 0.870000 0.542007
v -0.413405 0.200000 0.562007
v -0.413405 0.200000 0.542007
v -0.393405 0.870000 0.542007
v -0.393405 0.200000 0.542007
v -0.413405 0.900000 0.562007
v -0.743405 0.900000 0.562007
v -0.743405 0.900000 0.212008
v -0.413405 0.900000 0.232008
v -0.413405 0.900000 0.212008
v -0.393405 0.900000 0.232008
v -0.393405 1.119618 0.212008
v -0.393405 1.119618 0.562007
v -0.393405 0.870000 0.232008
v -0.393405 0.200000 0.562007
v -0.393405 0.200000 0.232008
v -0.393405 0.200000 0.212008
v -0.413405 0.870000 0.232008
v -0.413405 0.870000 0.212008
v -0.413405 0.200000 0.232008
v -0.413405 0.200000 0.212008
v -0.413405 1.119618 0.212008
v -0.413405 1.119618 0.562007
v -0.723405 0.870000 0.212008
v -0.723405 0.200000 0.212008
v -0.743405 0.200000 0.212008
v -0.723405 0.870000 0.232008
v -0.743405 0.870000 0.232008
v -0.723405 0.200000 0.232008
v -0.743405 0.200000 0.232008
v -0.743405 0.200000 0.562007
v -0.393405 1.019618 1.122137
v -0.413405 1.019618 1.122137
v -0.393405 1.019618 0.812137
v -0.413405 1.019618 0.812137
v -0.413405 0.900000 1.122137
v -0.393405 0.900000 1.122137
v -0.723405 0.200000 1.142137
v -0.723405 0.200000 1.122137
v -0.723405 0.870000 1.142137
v -0.723405 0.870000 1.122137
v -0.743405 0.200000 1.122137
v -0.743405 0.870000 1.122137
v -0.413405 0.870000 1.142137
v -0.413405 0.870000 1.122137
v -0.413405 0.200000 1.142137
v -0.413405 0.200000 1.122137
v -0.393405 0.870000 1.122137
v -0.393405 0.200000 1.122137
v -0.413405 0.900000 1.142137
v -0.743405 0.900000 1.142137
v -0.743405 0.900000 0.792137
v -0.413405 0.900000 0.812137
v -0.413405 0.900000 0.792137
v -0.393405 0.900000 0.812137
v -0.393405 1.119618 0.792137
v -0.393405 1.119618 1.142137
v -0.393405 0.870000 0.812137
v -0.393405 0.200000 1.142137
v -0.393405 0.200000 0.812137
v -0.393405 0.200000 0.792137
v -0.413405 0.870000 0.812137
v -0.413405 0.870000 0.792137
v -0.413405 0.200000 0.812137
v -0.413405 0.200000 0.792137
v -0.413405 1.119618 0.792137
v -0.413405 1.119618 1.142137
v -0.723405 0.870000 0.792137
v -0.723405 0.200000 0.792137
v -0.743405 0.200000 0.792137
v -0.723405 0.870000 0.812137
v -0.743405 0.870000 0.812137
v -0.723405 0.200000 0.812137
v -0.743405 0.200000 0.812137
v -0.743405 0.200000 1.142137
v 0.310000 0.240000 0.910000
v 0.300000 0.240000 0.910000
v 0.310000 1.090000 0.910000
v 0.300000 1.090000 0.910000
v 0.300000 0.240000 1.390000
v 0.300000 1.090000 1.390000
v 0.310000 0.240000 1.390000
v 0.310000 1.090000 1.390000
v 0.310000 0.240000 0.410000
v 0.300000 0.240000 0.410000
v 0.310000 1.090000 0.410000
v 0.300000 1.090000 0.410000
v 0.300000 0.240000 0.890000
v 0.300000 1.090000 0.890000
v 0.310000 0.240000 0.890000
v 0.310000 1.090000 0.890000
v 0.310000 0.240000 -0.090000
v 0.300000 0.240000 -0.090000
v 0.310000 1.090000 -0.090000
v 0.300000 1.090000 -0.090000
v 0.300000 0.240000 0.390000
v 0.300000 1.090000 0.390000
v 0.310000 0.240000 0.390000
v 0.310000 1.090000 0.390000
v 0.310000 0.240000 -0.590000
v 0.300000 0.240000 -0.590000
v 0.310000 1.090000 -0.590000
v 0.300000 1.090000 -0.590000
v 0.300000 0.240000 -0.110000
v 0.300000 1.090000 -0.110000
v 0.310000 0.240000 -0.110000
v 0.310000 1.090000 -0.110000
v 0.330000 0.230000 -0.600000
v 0.330000 0.230000 1.400000
v 0.310000 0.230000 -0.600000
v 0.310000 0.230000 1.400000
v 0.360000 1.100000 -0.150000
v 0.800000 1.100000 -0.150000
v 0.360000 0.850000 -0.150000
v 0.800000 0.850000 -0.150000
v 0.360000 1.100000 -0.550000
v 0.360000 0.850000 -0.550000
v 0.800000 1.100000 -0.550000
v 0.800000 0.850000 -0.550000
v 0.310000 1.100000 1.400000
v 0.310000 1.100000 -0.600000
v 0.900000 1.100000 1.400000
v 0.900000 1.100000 -0.600000
v 0.900000 3.013025 1.400000
v -0.900000 3.013025 1.400000
v -0.500000 1.100000 1.400000
v -0.900000 1.100000 1.400000
v -0.500000 0.200000 1.400000
v 0.330000 0.200000 1.400000
v 0.330000 0.200000 -0.600000
v 0.900000 0.200000 -0.600000
v -0.500000 0.200000 -0.330000
v -0.900000 0.200000 -0.330000
v -0.900000 0.200000 1.330000
v -0.500000 0.200000 1.330000
v 0.900000 0.200000 -1.400000
v -0.900000 0.200000 -1.400000
v -0.500000 0.200000 -0.400000
v -0.900000 0.200000 -0.400000
v -0.500000 1.050000 1.330000
v -0.900000 1.050000 1.330000
v -0.900000 1.050000 -0.330000
v -0.500000 1.050000 -0.330000
v -0.500000 1.100000 -0.400000
v -0.900000 1.100000 -0.400000
v 0.900000 2.626004 -1.400000
v -0.900000 2.626004 -1.400000
v 0.900000 3.247537 0.632944
v -0.900000 3.247537 0.632944
v -0.900000 2.804569 -1.500000
v -0.900000 3.456676 0.632944
v 0.900000 2.804569 -1.500000
v 0.900000 3.456676 0.632944
v -0.900000 3.191590 1.500000
v 0.900000 3.191590 1.500000
v -0.900000 0.000000 1.500000
v 0.900000 0.000000 1.500000
v -0.900000 0.000000 -1.500000
v 0.900000 0.000000 -1.500000
vn -0.0000 -1.0000 -0.0000
vn -0.0000 -0.0000 -1.0000
vn 1.0000 -0.0000 -0.0000
vn -1.0000 -0.0000 -0.0000
vn -0.0000 1.0000 -0.0000
vn -0.0000 -0.0000 1.0000
vn -0.0000 -0.9563 0.2924
vn -0.0000 -0.9563 -0.2924
vn -0.0000 0.9563 -0.2924
vn -0.0000 0.9563 0.2924
s 0
f 1//1 2//1 3//1
f 3//1 2//1 4//1
f 2//2 1//2 5//2
f 5//2 1//2 6//2
f 7//3 8//3 9//3
f 9//3 8//3 10//3
f 8//2 11//2 10//2
f 10//2 11//2 12//2
f 13//4 14//4 15//4
f 15//4 14//4 16//4
f 14//2 17//2 16//2
f 16//2 17//2 18//2
f 19//5 5//5 20//5
f 20//5 5//5 21//5
f 21//5 5//5 22//5
f 21//5 22//5 23//5
f 5//5 6//5 22//5
f 22//5 6//5 24//5
f 24//3 25//3 3//3
f 3//3 25//3 26//3
f 3//3 26//3 1//3
f 1//3 26//3 6//3
f 6//3 26//3 17//3
f 6//3 17//3 27//3
f 25//3 24//3 27//3
f 27//3 24//3 6//3
f 26//3 28//3 17//3
f 17//3 28//3 18//3
f 29//3 30//3 27//3
f 27//3 30//3 25//3
f 31//4 32//4 33//4
f 33//4 32//4 34//4
f 27//6 31//6 29//6
f 29//6 31//6 33//6
f 3//6 4//6 24//6
f 24//6 4//6 22//6
f 22//4 4//4 23//4
f 23//4 4//4 35//4
f 35//4 4//4 2//4
f 35//4 2//4 36//4
f 36//4 2//4 19//4
f 19//4 2//4 5//4
f 25//5 35//5 26//5
f 26//5 35//5 36//5
f 37//2 23//2 32//2
f 32//2 23//2 25//2
f 32//2 25//2 30//2
f 38//2 39//2 37//2
f 37//2 39//2 21//2
f 37//2 21//2 23//2
f 23//2 35//2 25//2
f 30//2 34//2 32//2
f 12//1 40//1 10//1
f 10//1 40//1 31//1
f 10//1 31//1 14//1
f 14//1 31//1 27//1
f 14//1 27//1 17//1
f 12//1 41//1 40//1
f 37//1 32//1 40//1
f 40//1 32//1 31//1
f 13//1 9//1 14//1
f 14//1 9//1 10//1
f 42//3 38//3 40//3
f 40//3 38//3 37//3
f 43//6 42//6 41//6
f 41//6 42//6 40//6
f 12//4 21//4 41//4
f 41//4 21//4 39//4
f 41//4 39//4 43//4
f 11//4 44//4 12//4
f 12//4 44//4 20//4
f 12//4 20//4 21//4
f 20//6 9//6 19//6
f 19//6 9//6 13//6
f 19//6 13//6 26//6
f 26//6 13//6 28//6
f 28//6 13//6 15//6
f 20//6 44//6 9//6
f 9//6 44//6 7//6
f 26//6 36//6 19//6
f 45//1 46//1 47//1
f 47//1 46//1 48//1
f 46//2 45//2 49//2
f 49//2 45//2 50//2
f 51//3 52//3 53//3
f 53//3 52//3 54//3
f 52//2 55//2 54//2
f 54//2 55//2 56//2
f 57//4 58//4 59//4
f 59//4 58//4 60//4
f 58//2 61//2 60//2
f 60//2 61//2 62//2
f 63//5 49//5 64//5
f 64//5 49//5 65//5
f 65//5 49//5 66//5
f 65//5 66//5 67//5
f 49//5 50//5 66//5
f 66//5 50//5 68//5
f 68//3 69//3 47//3
f 47//3 69//3 70//3
f 47//3 70//3 45//3
f 45//3 70//3 50//3
f 50//3 70//3 61//3
f 50//3 61//3 71//3
f 69//3 68//3 71//3
f 71//3 68//3 50//3
f 70//3 72//3 61//3
f 61//3 72//3 62//3
f 73//3 74//3 71//3
f 71//3 74//3 69//3
f 75//4 76//4 77//4
f 77//4 76//4 78//4
f 71//6 75//6 73//6
f 73//6 75//6 77//6
f 47//6 48//6 68//6
f 68//6 48//6 66//6
f 66//4 48//4 67//4
f 67//4 48//4 79//4
f 79//4 48//4 46//4
f 79//4 46//4 80//4
f 80//4 46//4 63//4
f 63//4 46//4 49//4
f 69//5 79//5 70//5
f 70//5 79//5 80//5
f 81//2 67//2 76//2
f 76//2 67//2 69//2
f 76//2 69//2 74//2
f 82//2 83//2 81//2
f 81//2 83//2 65//2
f 81//2 65//2 67//2
f 67//2 79//2 69//2
f 74//2 78//2 76//2
f 56//1 84//1 54//1
f 54//1 84//1 75//1
f 54//1 75//1 58//1
f 58//1 75//1 71//1
f 58//1 71//1 61//1
f 56//1 85//1 84//1
f 81//1 76//1 84//1
f 84//1 76//1 75//1
f 57//1 53//1 58//1
f 58//1 53//1 54//1
f 86//3 82//3 84//3
f 84//3 82//3 81//3
f 87//6 86//6 85//6
f 85//6 86//6 84//6
f 56//4 65//4 85//4
f 85//4 65//4 83//4
f 85//4 83//4 87//4
f 55//4 88//4 56//4
f 56//4 88//4 64//4
f 56//4 64//4 65//4
f 64//6 53//6 63//6
f 63//6 53//6 57//6
f 63//6 57//6 70//6
f 70//6 57//6 72//6
f 72//6 57//6 59//6
f 64//6 88//6 53//6
f 53//6 88//6 51//6
f 70//6 80//6 63//6
f 89//2 90//2 91//2
f 91//2 90//2 92//2
f 90//4 93//4 92//4
f 92//4 93//4 94//4
f 93//6 95//6 94//6
f 94//6 95//6 96//6
f 89//1 95//1 90//1
f 90//1 95//1 93//1
f 96//5 91//5 94//5
f 94//5 91//5 92//5
f 97//2 98//2 99//2
f 99//2 98//2 100//2
f 98//4 101//4 100//4
f 100//4 101//4 102//4
f 101//6 103//6 102//6
f 102//6 103//6 104//6
f 97//1 103//1 98//1
f 98//1 103//1 101//1
f 104//5 99//5 102//5
f 102//5 99//5 100//5
f 105//2 106//2 107//2
f 107//2 106//2 108//2
f 106//4 109//4 108//4
f 108//4 109//4 110//4
f 109//6 111//6 110//6
f 110//6 111//6 112//6
f 105//1 111//1 106//1
f 106//1 111//1 109//1
f 112//5 107//5 110//5
f 110//5 107//5 108//5
f 113//2 114//2 115//2
f 115//2 114//2 116//2
f 114//4 117//4 116//4
f 116//4 117//4 118//4
f 117//6 119//6 118//6
f 118//6 119//6 120//6
f 113//1 119//1 114//1
f 114//1 119//1 117//1
f 120//5 115//5 118//5
f 118//5 115//5 116//5
f 121//1 122//1 123//1
f 123//1 122//1 124//1
f 125//2 126//2 127//2
f 127//2 126//2 128//2
f 129//3 125//3 130//3
f 130//3 125//3 127//3
f 131//6 129//6 132//6
f 132//6 129//6 130//6
f 126//4 131//4 128//4
f 128//4 131//4 132//4
f 128//5 132//5 127//5
f 127//5 132//5 130//5
f 95//4 124//4 96//4
f 96//4 124//4 133//4
f 96//4 133//4 91//4
f 91//4 133//4 104//4
f 91//4 104//4 89//4
f 89//4 104//4 103//4
f 89//4 103//4 124//4
f 124//4 103//4 97//4
f 124//4 97//4 111//4
f 111//4 97//4 112//4
f 112//4 97//4 99//4
f 112//4 99//4 134//4
f 134//4 99//4 133//4
f 133//4 99//4 104//4
f 95//4 89//4 124//4
f 124//4 111//4 123//4
f 123//4 111//4 105//4
f 123//4 105//4 119//4
f 119//4 105//4 120//4
f 120//4 105//4 107//4
f 120//4 107//4 134//4
f 134//4 107//4 112//4
f 119//4 113//4 123//4
f 123//4 113//4 115//4
f 123//4 115//4 134//4
f 134//4 115//4 120//4
f 125//5 133//5 126//5
f 126//5 133//5 135//5
f 126//5 135//5 136//5
f 133//5 125//5 134//5
f 134//5 125//5 129//5
f 134//5 129//5 131//5
f 134//5 131//5 136//5
f 136//5 131//5 126//5
f 135//2 133//2 137//2
f 137//2 133//2 138//2
f 138//2 133//2 139//2
f 138//2 139//2 140//2
f 133//2 124//2 139//2
f 139//2 124//2 141//2
f 141//2 124//2 142//2
f 142//2 124//2 122//2
f 143//2 121//2 144//2
f 144//2 121//2 136//2
f 136//2 121//2 134//2
f 134//2 121//2 123//2
f 143//4 142//4 121//4
f 121//4 142//4 122//4
f 7//5 16//5 8//5
f 8//5 16//5 33//5
f 8//5 33//5 42//5
f 42//5 33//5 34//5
f 42//5 34//5 38//5
f 38//5 34//5 145//5
f 38//5 145//5 146//5
f 44//5 83//5 7//5
f 7//5 83//5 82//5
f 7//5 82//5 15//5
f 15//5 82//5 78//5
f 15//5 78//5 28//5
f 28//5 78//5 74//5
f 28//5 74//5 142//5
f 142//5 74//5 73//5
f 142//5 73//5 62//5
f 62//5 73//5 60//5
f 60//5 73//5 77//5
f 60//5 77//5 52//5
f 52//5 77//5 86//5
f 52//5 86//5 55//5
f 55//5 86//5 87//5
f 55//5 87//5 147//5
f 147//5 87//5 83//5
f 147//5 83//5 44//5
f 44//5 11//5 147//5
f 147//5 11//5 146//5
f 146//5 11//5 43//5
f 146//5 43//5 39//5
f 43//5 11//5 42//5
f 42//5 11//5 8//5
f 28//5 142//5 18//5
f 18//5 142//5 143//5
f 18//5 143//5 29//5
f 29//5 143//5 30//5
f 30//5 143//5 145//5
f 30//5 145//5 34//5
f 15//5 16//5 7//5
f 33//5 16//5 29//5
f 29//5 16//5 18//5
f 39//5 38//5 146//5
f 60//5 52//5 148//5
f 148//5 52//5 51//5
f 148//5 51//5 147//5
f 147//5 51//5 88//5
f 147//5 88//5 55//5
f 62//5 72//5 142//5
f 142//5 72//5 141//5
f 141//5 72//5 148//5
f 148//5 72//5 59//5
f 148//5 59//5 60//5
f 77//5 78//5 86//5
f 86//5 78//5 82//5
f 144//5 149//5 143//5
f 143//5 149//5 150//5
f 143//5 150//5 151//5
f 151//5 150//5 152//5
f 151//5 145//5 143//5
f 148//2 147//2 153//2
f 153//2 147//2 154//2
f 154//1 155//1 153//1
f 153//1 155//1 156//1
f 139//5 157//5 140//5
f 140//5 157//5 158//5
f 151//2 152//2 157//2
f 157//2 152//2 158//2
f 146//6 145//6 155//6
f 155//6 145//6 156//6
f 145//3 151//3 156//3
f 156//3 151//3 157//3
f 156//3 157//3 139//3
f 156//3 139//3 153//3
f 153//3 139//3 141//3
f 153//3 141//3 148//3
f 149//6 159//6 150//6
f 150//6 159//6 160//6
f 159//7 161//7 160//7
f 160//7 161//7 162//7
f 161//8 137//8 162//8
f 162//8 137//8 138//8
f 163//9 164//9 165//9
f 165//9 164//9 166//9
f 164//10 167//10 166//10
f 166//10 167//10 168//10
f 167//6 169//6 168//6
f 168//6 169//6 170//6
f 169//1 171//1 170//1
f 170//1 171//1 172//1
f 171//2 163//2 172//2
f 172//2 163//2 165//2
f 146//4 169//4 147//4
f 147//4 169//4 140//4
f 147//4 140//4 154//4
f 154//4 140//4 155//4
f 155//4 140//4 158//4
f 155//4 158//4 152//4
f 155//4 152//4 146//4
f 146//4 152//4 171//4
f 146//4 171//4 169//4
f 152//4 150//4 171//4
f 171//4 150//4 163//4
f 163//4 150//4 160//4
f 163//4 160//4 164//4
f 164//4 160//4 162//4
f 164//4 162//4 138//4
f 164//4 138//4 167//4
f 167//4 138//4 140//4
f 167//4 140//4 169//4
f 137//3 161//3 166//3
f 166//3 161//3 159//3
f 166//3 159//3 165//3
f 165//3 159//3 149//3
f 165//3 149//3 172//3
f 172//3 149//3 144//3
f 172//3 144//3 170//3
f 170//3 144//3 135//3
f 170//3 135//3 168//3
f 168//3 135//3 137//3
f 168//3 137//3 166//3
f 144//3 136//3 135//3
