# Blender 3.5.1
# www.blender.org
mtllib 3D_4.3_SIM.mtl
o 3D_4.3_SIM
v 0.400000 0.200000 1.400000
v 0.400000 0.200000 -1.400000
v -0.400000 0.200000 1.400000
v -0.400000 0.200000 -1.400000
v 0.400000 2.626004 -1.400000
v -0.400000 2.626004 -1.400000
v 0.400000 3.247537 0.632944
v -0.400000 3.247537 0.632944
v 0.400000 3.013025 1.400000
v -0.400000 3.013025 1.400000
v -0.400000 2.804569 -1.500000
v -0.400000 3.456676 0.632944
v 0.400000 2.804569 -1.500000
v 0.400000 3.456676 0.632944
v -0.400000 3.191590 1.500000
v 0.400000 3.191590 1.500000
v -0.400000 0.000000 1.500000
v 0.400000 0.000000 1.500000
v -0.400000 -0.000000 -1.500000
v 0.400000 -0.000000 -1.500000
vn -0.0000 1.0000 -0.0000
vn -0.0000 -0.0000 1.0000
vn -0.0000 -0.9563 0.2924
vn -0.0000 -0.9563 -0.2924
vn -0.0000 -0.0000 -1.0000
vn -0.0000 0.9563 -0.2924
vn -0.0000 0.9563 0.2924
vn -0.0000 -1.0000 -0.0000
vn -1.0000 -0.0000 -0.0000
vn 1.0000 -0.0000 -0.0000
s 0
f 1//1 2//1 3//1
f 3//1 2//1 4//1
f 2//2 5//2 4//2
f 4//2 5//2 6//2
f 5//3 7//3 6//3
f 6//3 7//3 8//3
f 7//4 9//4 8//4
f 8//4 9//4 10//4
f 9//5 1//5 10//5
f 10//5 1//5 3//5
f 11//6 12//6 13//6
f 13//6 12//6 14//6
f 12//7 15//7 14//7
f 14//7 15//7 16//7
f 15//2 17//2 16//2
f 16//2 17//2 18//2
f 17//8 19//8 18//8
f 18//8 19//8 20//8
f 19//5 11//5 20//5
f 20//5 11//5 13//5
f 8//9 12//9 6//9
f 6//9 12//9 11//9
f 6//9 11//9 4//9
f 4//9 11//9 19//9
f 4//9 19//9 17//9
f 8//9 10//9 12//9
f 12//9 10//9 15//9
f 15//9 10//9 3//9
f 15//9 3//9 17//9
f 17//9 3//9 4//9
f 9//10 7//10 14//10
f 14//10 7//10 5//10
f 14//10 5//10 13//10
f 13//10 5//10 2//10
f 13//10 2//10 20//10
f 20//10 2//10 18//10
f 18//10 2//10 1//10
f 18//10 1//10 16//10
f 16//10 1//10 9//10
f 16//10 9//10 14//10
