# Blender 3.5.1
# www.blender.org
mtllib 3D_2.2.mtl
o 2.2
v 1.790000 0.240001 -2.300000
v 1.790000 0.240001 -2.310000
v 1.790000 1.090001 -2.300000
v 1.790000 1.090001 -2.310000
v 1.210000 0.240001 -2.300000
v 1.210000 1.090001 -2.300000
v 1.210000 0.240001 -2.310000
v 1.210000 1.090001 -2.310000
v 1.190000 0.240001 -2.300000
v 1.190000 0.240001 -2.310000
v 1.190000 1.090001 -2.300000
v 1.190000 1.090001 -2.310000
v 0.610000 0.240001 -2.300000
v 0.610000 1.090001 -2.300000
v 0.610000 0.240001 -2.310000
v 0.610000 1.090001 -2.310000
v 0.590000 0.240001 -2.300000
v 0.590000 0.240001 -2.310000
v 0.590000 1.090001 -2.300000
v 0.590000 1.090001 -2.310000
v 0.010000 0.240001 -2.300000
v 0.010000 1.090001 -2.300000
v 0.010000 0.240001 -2.310000
v 0.010000 1.090001 -2.310000
v 1.250000 1.100001 -2.800000
v 1.250000 1.100001 -2.360000
v 1.250000 0.850001 -2.800000
v 1.250000 0.850001 -2.360000
v 1.750000 1.100001 -2.360000
v 1.750000 0.850001 -2.360000
v 1.750000 1.100001 -2.800000
v 1.750000 0.850001 -2.800000
v 1.800000 0.230001 -2.310000
v 0.000000 0.230001 -2.310000
v 1.800000 1.100001 -2.310000
v 0.000000 1.100001 -2.310000
v 1.800000 0.230001 -2.330000
v 0.000000 0.230001 -2.330000
v 1.800000 1.100001 -2.900000
v 0.000000 1.100001 -2.900000
v 0.000000 0.200001 -2.330000
v 1.800000 0.200001 -2.330000
v 1.800000 3.013026 -2.900000
v 0.000000 3.013026 -2.900000
v 0.000000 0.200001 -0.100000
v 1.800000 0.200001 -0.100000
v 1.800000 2.626005 -0.100000
v 0.000000 2.626005 -0.100000
v 1.800000 3.247538 -2.132944
v 0.000000 3.247538 -2.132944
v 0.000000 3.456676 -2.132944
v 0.000000 2.804570 0.000000
v 1.800000 3.456676 -2.132944
v 1.800000 2.804570 0.000000
v 0.000000 3.191591 -3.000000
v 1.800000 3.191591 -3.000000
v 0.000000 0.000001 -3.000000
v 1.800000 0.000001 -3.000000
v 0.000000 0.000001 0.000000
v 1.800000 0.000001 0.000000
vn 1.0000 -0.0000 -0.0000
vn -0.0000 -0.0000 1.0000
vn -1.0000 -0.0000 -0.0000
vn -0.0000 1.0000 -0.0000
vn -0.0000 -1.0000 -0.0000
vn -0.0000 -0.0000 -1.0000
vn -0.0000 -0.9563 -0.2924
vn -0.0000 -0.9563 0.2924
vn -0.0000 0.9563 0.2924
vn -0.0000 0.9563 -0.2924
s 0
f 1//1 2//1 3//1
f 3//1 2//1 4//1
f 5//2 1//2 6//2
f 6//2 1//2 3//2
f 7//3 5//3 8//3
f 8//3 5//3 6//3
f 8//4 6//4 4//4
f 4//4 6//4 3//4
f 5//5 7//5 1//5
f 1//5 7//5 2//5
f 9//1 10//1 11//1
f 11//1 10//1 12//1
f 13//2 9//2 14//2
f 14//2 9//2 11//2
f 15//3 13//3 16//3
f 16//3 13//3 14//3
f 16//4 14//4 12//4
f 12//4 14//4 11//4
f 13//5 15//5 9//5
f 9//5 15//5 10//5
f 17//1 18//1 19//1
f 19//1 18//1 20//1
f 21//2 17//2 22//2
f 22//2 17//2 19//2
f 23//3 21//3 24//3
f 24//3 21//3 22//3
f 24//4 22//4 20//4
f 20//4 22//4 19//4
f 21//5 23//5 17//5
f 17//5 23//5 18//5
f 25//1 26//1 27//1
f 27//1 26//1 28//1
f 26//6 29//6 28//6
f 28//6 29//6 30//6
f 29//3 31//3 30//3
f 30//3 31//3 32//3
f 31//2 25//2 32//2
f 32//2 25//2 27//2
f 27//4 28//4 32//4
f 32//4 28//4 30//4
f 8//2 12//2 7//2
f 7//2 12//2 10//2
f 7//2 10//2 33//2
f 33//2 10//2 15//2
f 33//2 15//2 34//2
f 34//2 15//2 18//2
f 34//2 18//2 23//2
f 12//2 8//2 35//2
f 35//2 8//2 4//2
f 35//2 4//2 33//2
f 33//2 4//2 2//2
f 33//2 2//2 7//2
f 18//2 15//2 20//2
f 20//2 15//2 16//2
f 20//2 16//2 36//2
f 36//2 16//2 12//2
f 36//2 12//2 35//2
f 23//2 24//2 34//2
f 34//2 24//2 36//2
f 36//2 24//2 20//2
f 37//5 33//5 38//5
f 38//5 33//5 34//5
f 25//4 36//4 26//4
f 26//4 36//4 35//4
f 26//4 35//4 29//4
f 29//4 35//4 31//4
f 31//4 35//4 39//4
f 31//4 39//4 25//4
f 25//4 39//4 40//4
f 25//4 40//4 36//4
f 41//2 42//2 38//2
f 38//2 42//2 37//2
f 39//2 43//2 40//2
f 40//2 43//2 44//2
f 41//4 45//4 42//4
f 42//4 45//4 46//4
f 47//6 46//6 48//6
f 48//6 46//6 45//6
f 49//7 47//7 50//7
f 50//7 47//7 48//7
f 43//8 49//8 44//8
f 44//8 49//8 50//8
f 51//9 52//9 53//9
f 53//9 52//9 54//9
f 55//10 51//10 56//10
f 56//10 51//10 53//10
f 57//6 55//6 58//6
f 58//6 55//6 56//6
f 59//5 57//5 60//5
f 60//5 57//5 58//5
f 52//2 59//2 54//2
f 54//2 59//2 60//2
f 44//3 50//3 51//3
f 51//3 50//3 48//3
f 51//3 48//3 52//3
f 52//3 48//3 45//3
f 52//3 45//3 59//3
f 59//3 45//3 41//3
f 59//3 41//3 57//3
f 57//3 41//3 38//3
f 57//3 38//3 40//3
f 40//3 38//3 36//3
f 36//3 38//3 34//3
f 57//3 40//3 55//3
f 55//3 40//3 44//3
f 55//3 44//3 51//3
f 49//1 53//1 47//1
f 47//1 53//1 54//1
f 47//1 54//1 46//1
f 46//1 54//1 60//1
f 46//1 60//1 42//1
f 42//1 60//1 58//1
f 42//1 58//1 37//1
f 37//1 58//1 39//1
f 37//1 39//1 35//1
f 49//1 43//1 53//1
f 53//1 43//1 56//1
f 56//1 43//1 39//1
f 56//1 39//1 58//1
f 35//1 33//1 37//1
