# Blender 3.5.1
# www.blender.org
mtllib 3D_2.4_SIM.mtl
o 3D_2.4_SIM
v 0.010000 0.240000 0.410000
v 0.000000 0.240000 0.410000
v 0.010000 1.090000 0.410000
v 0.000000 1.090000 0.410000
v 0.000000 0.240000 0.780000
v 0.000000 1.090000 0.780000
v 0.010000 0.240000 0.780000
v 0.010000 1.090000 0.780000
v 0.010000 0.240000 -0.090000
v 0.000000 0.240000 -0.090000
v 0.010000 1.090000 -0.090000
v 0.000000 1.090000 -0.090000
v 0.000000 0.240000 0.390000
v 0.000000 1.090000 0.390000
v 0.010000 0.240000 0.390000
v 0.010000 1.090000 0.390000
v 0.000000 0.240000 0.810000
v 0.000000 0.240000 0.800000
v 0.000000 1.090000 0.810000
v 0.000000 1.090000 0.800000
v -0.590000 0.240000 0.800000
v -0.590000 1.090000 0.800000
v -0.590000 0.240000 0.810000
v -0.590000 1.090000 0.810000
v 0.010000 0.240000 -0.590000
v 0.000000 0.240000 -0.590000
v 0.010000 1.090000 -0.590000
v 0.000000 1.090000 -0.590000
v 0.000000 0.240000 -0.110000
v 0.000000 1.090000 -0.110000
v 0.010000 0.240000 -0.110000
v 0.010000 1.090000 -0.110000
v 0.010000 0.230000 -0.600000
v 0.030000 0.230000 -0.600000
v 0.010000 0.230000 0.810000
v 0.030000 0.230000 0.830000
v -0.600000 0.230000 0.830000
v -0.600000 0.230000 0.810000
v -0.550000 1.100000 0.860000
v -0.550000 1.100000 1.300000
v -0.550000 0.850000 0.860000
v -0.550000 0.850000 1.300000
v -0.050000 1.100000 0.860000
v -0.050000 0.850000 0.860000
v -0.050000 1.100000 1.300000
v -0.050000 0.850000 1.300000
v 0.010000 1.100000 0.810000
v 0.010000 1.100000 -0.600000
v -0.600000 1.100000 0.810000
v -0.600000 1.100000 1.400000
v 0.600000 1.100000 1.400000
v 0.600000 1.100000 -0.600000
v -0.600000 3.013025 1.400000
v 0.600000 3.013025 1.400000
v 0.030000 0.200000 -0.600000
v 0.600000 0.200000 -0.600000
v 0.030000 0.200000 0.830000
v -0.600000 0.200000 0.830000
v -0.600000 0.200000 -1.400000
v 0.600000 0.200000 -1.400000
v 0.600000 2.626004 -1.400000
v -0.600000 2.626004 -1.400000
v 0.600000 3.247537 0.632944
v -0.600000 3.247537 0.632944
v -0.600000 2.804569 -1.500000
v -0.600000 3.456676 0.632944
v 0.600000 2.804569 -1.500000
v 0.600000 3.456676 0.632944
v -0.600000 3.191590 1.500000
v 0.600000 3.191590 1.500000
v -0.600000 0.000000 1.500000
v 0.600000 0.000000 1.500000
v -0.600000 0.000000 -1.500000
v 0.600000 0.000000 -1.500000
vn -0.0000 -0.0000 -1.0000
vn -1.0000 -0.0000 -0.0000
vn -0.0000 -0.0000 1.0000
vn -0.0000 -1.0000 -0.0000
vn -0.0000 1.0000 -0.0000
vn 1.0000 -0.0000 -0.0000
vn -0.0000 -0.9563 0.2924
vn -0.0000 -0.9563 -0.2924
vn -0.0000 0.9563 -0.2924
vn -0.0000 0.9563 0.2924
s 0
f 1//1 2//1 3//1
f 3//1 2//1 4//1
f 2//2 5//2 4//2
f 4//2 5//2 6//2
f 5//3 7//3 6//3
f 6//3 7//3 8//3
f 1//4 7//4 2//4
f 2//4 7//4 5//4
f 8//5 3//5 6//5
f 6//5 3//5 4//5
f 9//1 10//1 11//1
f 11//1 10//1 12//1
f 10//2 13//2 12//2
f 12//2 13//2 14//2
f 13//3 15//3 14//3
f 14//3 15//3 16//3
f 9//4 15//4 10//4
f 10//4 15//4 13//4
f 16//5 11//5 14//5
f 14//5 11//5 12//5
f 17//6 18//6 19//6
f 19//6 18//6 20//6
f 18//1 21//1 20//1
f 20//1 21//1 22//1
f 21//2 23//2 22//2
f 22//2 23//2 24//2
f 22//5 24//5 20//5
f 20//5 24//5 19//5
f 23//4 21//4 17//4
f 17//4 21//4 18//4
f 25//1 26//1 27//1
f 27//1 26//1 28//1
f 26//2 29//2 28//2
f 28//2 29//2 30//2
f 29//3 31//3 30//3
f 30//3 31//3 32//3
f 25//4 31//4 26//4
f 26//4 31//4 29//4
f 32//5 27//5 30//5
f 30//5 27//5 28//5
f 33//4 34//4 35//4
f 35//4 34//4 36//4
f 35//4 36//4 37//4
f 37//4 38//4 35//4
f 39//6 40//6 41//6
f 41//6 40//6 42//6
f 43//3 39//3 44//3
f 44//3 39//3 41//3
f 45//2 43//2 46//2
f 46//2 43//2 44//2
f 40//1 45//1 42//1
f 42//1 45//1 46//1
f 46//5 44//5 42//5
f 42//5 44//5 41//5
f 7//2 35//2 8//2
f 8//2 35//2 47//2
f 8//2 47//2 3//2
f 3//2 47//2 16//2
f 3//2 16//2 1//2
f 1//2 16//2 15//2
f 1//2 15//2 35//2
f 35//2 15//2 9//2
f 35//2 9//2 33//2
f 33//2 9//2 31//2
f 33//2 31//2 25//2
f 7//2 1//2 35//2
f 31//2 9//2 32//2
f 32//2 9//2 11//2
f 32//2 11//2 48//2
f 48//2 11//2 47//2
f 47//2 11//2 16//2
f 25//2 27//2 33//2
f 33//2 27//2 48//2
f 48//2 27//2 32//2
f 23//1 38//1 24//1
f 24//1 38//1 49//1
f 24//1 49//1 47//1
f 23//1 17//1 38//1
f 38//1 17//1 35//1
f 35//1 17//1 19//1
f 35//1 19//1 47//1
f 47//1 19//1 24//1
f 39//5 49//5 40//5
f 40//5 49//5 50//5
f 40//5 50//5 45//5
f 45//5 50//5 51//5
f 45//5 51//5 47//5
f 47//5 51//5 52//5
f 47//5 52//5 48//5
f 39//5 43//5 49//5
f 49//5 43//5 47//5
f 47//5 43//5 45//5
f 50//1 53//1 51//1
f 51//1 53//1 54//1
f 55//1 34//1 56//1
f 56//1 34//1 52//1
f 52//1 34//1 48//1
f 48//1 34//1 33//1
f 55//2 57//2 34//2
f 34//2 57//2 36//2
f 57//1 58//1 36//1
f 36//1 58//1 37//1
f 57//5 55//5 58//5
f 58//5 55//5 59//5
f 59//5 55//5 60//5
f 60//5 55//5 56//5
f 60//3 61//3 59//3
f 59//3 61//3 62//3
f 61//7 63//7 62//7
f 62//7 63//7 64//7
f 63//8 54//8 64//8
f 64//8 54//8 53//8
f 65//9 66//9 67//9
f 67//9 66//9 68//9
f 66//10 69//10 68//10
f 68//10 69//10 70//10
f 69//3 71//3 70//3
f 70//3 71//3 72//3
f 71//4 73//4 72//4
f 72//4 73//4 74//4
f 73//1 65//1 74//1
f 74//1 65//1 67//1
f 64//2 66//2 62//2
f 62//2 66//2 65//2
f 62//2 65//2 59//2
f 59//2 65//2 73//2
f 59//2 73//2 58//2
f 58//2 73//2 71//2
f 58//2 71//2 37//2
f 37//2 71//2 50//2
f 37//2 50//2 49//2
f 64//2 53//2 66//2
f 66//2 53//2 69//2
f 69//2 53//2 50//2
f 69//2 50//2 71//2
f 49//2 38//2 37//2
f 54//6 63//6 68//6
f 68//6 63//6 61//6
f 68//6 61//6 67//6
f 67//6 61//6 60//6
f 67//6 60//6 74//6
f 74//6 60//6 56//6
f 74//6 56//6 72//6
f 72//6 56//6 51//6
f 72//6 51//6 70//6
f 70//6 51//6 54//6
f 70//6 54//6 68//6
f 56//6 52//6 51//6
