# Blender 3.5.1
# www.blender.org
mtllib 3D_8.7.mtl
o 3D_8.7
v 0.590885 1.550868 0.104189
v 0.590885 -0.000000 0.104189
v 0.600000 1.550868 0.000000
v 0.600000 -0.000000 0.000000
v 0.590885 1.550868 -0.104189
v 0.590885 -0.000000 -0.104189
v 0.563815 1.550868 -0.205212
v 0.563815 -0.000000 -0.205212
v 0.519615 1.550868 -0.300000
v 0.519615 -0.000000 -0.300000
v 0.459627 1.550868 -0.385672
v 0.459627 -0.000000 -0.385672
v 0.385672 1.550868 -0.459626
v 0.385672 -0.000000 -0.459626
v 0.300000 1.550868 -0.519615
v 0.300000 -0.000000 -0.519615
v 0.205212 1.550868 -0.563815
v 0.205212 -0.000000 -0.563815
v 0.104189 1.550868 -0.590885
v 0.104189 -0.000000 -0.590885
v -0.000000 1.550868 -0.600000
v -0.000000 -0.000000 -0.600000
v -0.104189 1.550868 -0.590885
v -0.104189 -0.000000 -0.590885
v -0.205212 1.550868 -0.563815
v -0.205212 -0.000000 -0.563815
v -0.300000 1.550868 -0.519615
v -0.300000 -0.000000 -0.519615
v -0.385673 1.550868 -0.459626
v -0.385673 -0.000000 -0.459626
v -0.459627 1.550868 -0.385672
v -0.459627 -0.000000 -0.385672
v -0.519615 1.550868 -0.300000
v -0.519615 -0.000000 -0.300000
v -0.563816 1.550868 -0.205212
v -0.563816 -0.000000 -0.205212
v -0.590885 1.550868 -0.104189
v -0.590885 -0.000000 -0.104189
v -0.600000 1.550868 0.000000
v -0.600000 -0.000000 0.000000
v -0.590885 1.550868 0.104189
v -0.590885 -0.000000 0.104189
v -0.563816 1.550868 0.205212
v -0.563816 -0.000000 0.205212
v -0.519615 1.550868 0.300000
v -0.519615 -0.000000 0.300000
v -0.459627 1.550868 0.385673
v -0.459627 -0.000000 0.385673
v -0.385673 1.550868 0.459627
v -0.385673 -0.000000 0.459627
v -0.300000 1.550868 0.519615
v -0.300000 -0.000000 0.519615
v -0.205212 1.550868 0.563816
v -0.205212 -0.000000 0.563816
v -0.104189 1.550868 0.590885
v -0.104189 -0.000000 0.590885
v -0.000000 1.550868 0.600000
v -0.000000 -0.000000 0.600000
v 0.104189 1.550868 0.590885
v 0.104189 -0.000000 0.590885
v 0.205212 1.550868 0.563816
v 0.205212 -0.000000 0.563816
v 0.300000 1.550868 0.519615
v 0.300000 -0.000000 0.519615
v 0.385672 1.550868 0.459627
v 0.385672 -0.000000 0.459627
v 0.459627 1.550868 0.385673
v 0.459627 -0.000000 0.385673
v 0.519615 1.550868 0.300000
v 0.519615 -0.000000 0.300000
v 0.563815 1.550868 0.205212
v 0.563815 -0.000000 0.205212
vn 0.9962 -0.0000 0.0872
vn 0.9962 -0.0000 -0.0872
vn 0.9659 -0.0000 -0.2588
vn 0.9063 -0.0000 -0.4226
vn 0.8192 -0.0000 -0.5736
vn 0.7071 -0.0000 -0.7071
vn 0.5736 -0.0000 -0.8192
vn 0.4226 -0.0000 -0.9063
vn 0.2588 -0.0000 -0.9659
vn 0.0872 -0.0000 -0.9962
vn -0.0872 -0.0000 -0.9962
vn -0.2588 -0.0000 -0.9659
vn -0.4226 -0.0000 -0.9063
vn -0.5736 -0.0000 -0.8192
vn -0.7071 -0.0000 -0.7071
vn -0.8192 -0.0000 -0.5736
vn -0.9063 -0.0000 -0.4226
vn -0.9659 -0.0000 -0.2588
vn -0.9962 -0.0000 -0.0872
vn -0.9962 -0.0000 0.0872
vn -0.9659 -0.0000 0.2588
vn -0.9063 -0.0000 0.4226
vn -0.8192 -0.0000 0.5736
vn -0.7071 -0.0000 0.7071
vn -0.5736 -0.0000 0.8192
vn -0.4226 -0.0000 0.9063
vn -0.2588 -0.0000 0.9659
vn -0.0872 -0.0000 0.9962
vn 0.0872 -0.0000 0.9962
vn 0.2588 -0.0000 0.9659
vn 0.4226 -0.0000 0.9063
vn 0.5736 -0.0000 0.8192
vn 0.7071 -0.0000 0.7071
vn 0.8192 -0.0000 0.5736
vn 0.9063 -0.0000 0.4226
vn 0.9659 -0.0000 0.2588
vn -0.0000 1.0000 -0.0000
vn -0.0000 -1.0000 -0.0000
s 0
f 1//1 2//1 3//1
f 3//1 2//1 4//1
f 3//2 4//2 5//2
f 5//2 4//2 6//2
f 5//3 6//3 7//3
f 7//3 6//3 8//3
f 7//4 8//4 9//4
f 9//4 8//4 10//4
f 9//5 10//5 11//5
f 11//5 10//5 12//5
f 11//6 12//6 13//6
f 13//6 12//6 14//6
f 13//7 14//7 15//7
f 15//7 14//7 16//7
f 15//8 16//8 17//8
f 17//8 16//8 18//8
f 17//9 18//9 19//9
f 19//9 18//9 20//9
f 19//10 20//10 21//10
f 21//10 20//10 22//10
f 21//11 22//11 23//11
f 23//11 22//11 24//11
f 23//12 24//12 25//12
f 25//12 24//12 26//12
f 25//13 26//13 27//13
f 27//13 26//13 28//13
f 27//14 28//14 29//14
f 29//14 28//14 30//14
f 29//15 30//15 31//15
f 31//15 30//15 32//15
f 31//16 32//16 33//16
f 33//16 32//16 34//16
f 33//17 34//17 35//17
f 35//17 34//17 36//17
f 35//18 36//18 37//18
f 37//18 36//18 38//18
f 37//19 38//19 39//19
f 39//19 38//19 40//19
f 39//20 40//20 41//20
f 41//20 40//20 42//20
f 41//21 42//21 43//21
f 43//21 42//21 44//21
f 43//22 44//22 45//22
f 45//22 44//22 46//22
f 45//23 46//23 47//23
f 47//23 46//23 48//23
f 47//24 48//24 49//24
f 49//24 48//24 50//24
f 49//25 50//25 51//25
f 51//25 50//25 52//25
f 51//26 52//26 53//26
f 53//26 52//26 54//26
f 53//27 54//27 55//27
f 55//27 54//27 56//27
f 55//28 56//28 57//28
f 57//28 56//28 58//28
f 57//29 58//29 59//29
f 59//29 58//29 60//29
f 59//30 60//30 61//30
f 61//30 60//30 62//30
f 61//31 62//31 63//31
f 63//31 62//31 64//31
f 63//32 64//32 65//32
f 65//32 64//32 66//32
f 65//33 66//33 67//33
f 67//33 66//33 68//33
f 67//34 68//34 69//34
f 69//34 68//34 70//34
f 69//35 70//35 71//35
f 71//35 70//35 72//35
f 71//36 72//36 1//36
f 1//36 72//36 2//36
f 5//37 37//37 3//37
f 3//37 37//37 39//37
f 3//37 39//37 1//37
f 1//37 39//37 41//37
f 1//37 41//37 71//37
f 71//37 41//37 43//37
f 71//37 43//37 69//37
f 69//37 43//37 45//37
f 69//37 45//37 67//37
f 67//37 45//37 47//37
f 67//37 47//37 65//37
f 65//37 47//37 49//37
f 65//37 49//37 63//37
f 63//37 49//37 51//37
f 63//37 51//37 61//37
f 61//37 51//37 53//37
f 61//37 53//37 59//37
f 59//37 53//37 55//37
f 59//37 55//37 57//37
f 37//37 5//37 35//37
f 35//37 5//37 7//37
f 35//37 7//37 33//37
f 33//37 7//37 9//37
f 33//37 9//37 31//37
f 31//37 9//37 11//37
f 31//37 11//37 29//37
f 29//37 11//37 13//37
f 29//37 13//37 27//37
f 27//37 13//37 15//37
f 27//37 15//37 25//37
f 25//37 15//37 17//37
f 25//37 17//37 23//37
f 23//37 17//37 19//37
f 23//37 19//37 21//37
f 2//38 42//38 4//38
f 4//38 42//38 40//38
f 4//38 40//38 6//38
f 6//38 40//38 38//38
f 6//38 38//38 8//38
f 8//38 38//38 36//38
f 8//38 36//38 10//38
f 10//38 36//38 34//38
f 10//38 34//38 12//38
f 12//38 34//38 32//38
f 12//38 32//38 14//38
f 14//38 32//38 30//38
f 14//38 30//38 16//38
f 16//38 30//38 28//38
f 16//38 28//38 18//38
f 18//38 28//38 26//38
f 18//38 26//38 20//38
f 20//38 26//38 24//38
f 20//38 24//38 22//38
f 42//38 2//38 44//38
f 44//38 2//38 72//38
f 44//38 72//38 46//38
f 46//38 72//38 70//38
f 46//38 70//38 48//38
f 48//38 70//38 68//38
f 48//38 68//38 50//38
f 50//38 68//38 66//38
f 50//38 66//38 52//38
f 52//38 66//38 64//38
f 52//38 64//38 54//38
f 54//38 64//38 62//38
f 54//38 62//38 56//38
f 56//38 62//38 60//38
f 56//38 60//38 58//38
