# Blender 3.5.1
# www.blender.org
mtllib 3D_2.5_SIM.mtl
o 3D_2.5_SIM
v 0.310000 0.240000 -0.590000
v 0.300000 0.240000 -0.590000
v 0.310000 1.090000 -0.590000
v 0.300000 1.090000 -0.590000
v 0.300000 0.240000 -0.110000
v 0.300000 1.090000 -0.110000
v 0.310000 0.240000 -0.110000
v 0.310000 1.090000 -0.110000
v 0.310000 0.240000 -0.090000
v 0.300000 0.240000 -0.090000
v 0.310000 1.090000 -0.090000
v 0.300000 1.090000 -0.090000
v 0.300000 0.240000 0.390000
v 0.300000 1.090000 0.390000
v 0.310000 0.240000 0.390000
v 0.310000 1.090000 0.390000
v 0.310000 0.240000 0.410000
v 0.300000 0.240000 0.410000
v 0.310000 1.090000 0.410000
v 0.300000 1.090000 0.410000
v 0.300000 0.240000 0.780000
v 0.300000 1.090000 0.780000
v 0.310000 0.240000 0.780000
v 0.310000 1.090000 0.780000
v 0.290000 0.240000 0.810000
v 0.290000 0.240000 0.800000
v 0.290000 1.090000 0.810000
v 0.290000 1.090000 0.800000
v -0.290000 0.240000 0.800000
v -0.290000 1.090000 0.800000
v -0.290000 0.240000 0.810000
v -0.290000 1.090000 0.810000
v -0.310000 0.240000 0.810000
v -0.310000 0.240000 0.800000
v -0.310000 1.090000 0.810000
v -0.310000 1.090000 0.800000
v -0.890000 0.240000 0.800000
v -0.890000 1.090000 0.800000
v -0.890000 0.240000 0.810000
v -0.890000 1.090000 0.810000
v 0.310000 0.230000 -0.600000
v 0.330000 0.230000 -0.600000
v 0.310000 0.230000 0.810000
v 0.330000 0.230000 0.830000
v -0.900000 0.230000 0.830000
v -0.900000 0.230000 0.810000
v -0.250000 1.100000 1.300000
v 0.250000 1.100000 1.300000
v -0.250000 0.850000 1.300000
v 0.250000 0.850000 1.300000
v -0.250000 1.100000 0.860000
v -0.250000 0.850000 0.860000
v 0.250000 1.100000 0.860000
v 0.250000 0.850000 0.860000
v 0.310000 1.100000 -0.600000
v 0.310000 1.100000 0.810000
v -0.900000 1.100000 0.810000
v -0.900000 1.100000 1.400000
v 0.900000 1.100000 1.400000
v 0.900000 1.100000 -0.600000
v -0.900000 3.013025 1.400000
v 0.900000 3.013025 1.400000
v 0.330000 0.200000 0.830000
v 0.330000 0.200000 -0.600000
v 0.900000 0.200000 -0.600000
v -0.900000 0.200000 0.830000
v -0.900000 0.200000 -1.400000
v 0.900000 0.200000 -1.400000
v 0.900000 2.626004 -1.400000
v -0.900000 2.626004 -1.400000
v 0.900000 3.247537 0.632944
v -0.900000 3.247537 0.632944
v -0.900000 2.804569 -1.500000
v -0.900000 3.456676 0.632944
v 0.900000 2.804569 -1.500000
v 0.900000 3.456676 0.632944
v -0.900000 3.191590 1.500000
v 0.900000 3.191590 1.500000
v -0.900000 0.000000 1.500000
v 0.900000 0.000000 1.500000
v -0.900000 0.000000 -1.500000
v 0.900000 0.000000 -1.500000
vn -0.0000 -0.0000 -1.0000
vn -1.0000 -0.0000 -0.0000
vn -0.0000 -0.0000 1.0000
vn -0.0000 -1.0000 -0.0000
vn -0.0000 1.0000 -0.0000
vn 1.0000 -0.0000 -0.0000
vn -0.0000 -0.9563 0.2924
vn -0.0000 -0.9563 -0.2924
vn -0.0000 0.9563 -0.2924
vn -0.0000 0.9563 0.2924
s 0
f 1//1 2//1 3//1
f 3//1 2//1 4//1
f 2//2 5//2 4//2
f 4//2 5//2 6//2
f 5//3 7//3 6//3
f 6//3 7//3 8//3
f 1//4 7//4 2//4
f 2//4 7//4 5//4
f 8//5 3//5 6//5
f 6//5 3//5 4//5
f 9//1 10//1 11//1
f 11//1 10//1 12//1
f 10//2 13//2 12//2
f 12//2 13//2 14//2
f 13//3 15//3 14//3
f 14//3 15//3 16//3
f 9//4 15//4 10//4
f 10//4 15//4 13//4
f 16//5 11//5 14//5
f 14//5 11//5 12//5
f 17//1 18//1 19//1
f 19//1 18//1 20//1
f 18//2 21//2 20//2
f 20//2 21//2 22//2
f 21//3 23//3 22//3
f 22//3 23//3 24//3
f 17//4 23//4 18//4
f 18//4 23//4 21//4
f 24//5 19//5 22//5
f 22//5 19//5 20//5
f 25//6 26//6 27//6
f 27//6 26//6 28//6
f 26//1 29//1 28//1
f 28//1 29//1 30//1
f 29//2 31//2 30//2
f 30//2 31//2 32//2
f 31//4 29//4 25//4
f 25//4 29//4 26//4
f 27//5 28//5 32//5
f 32//5 28//5 30//5
f 33//6 34//6 35//6
f 35//6 34//6 36//6
f 34//1 37//1 36//1
f 36//1 37//1 38//1
f 37//2 39//2 38//2
f 38//2 39//2 40//2
f 39//4 37//4 33//4
f 33//4 37//4 34//4
f 38//5 40//5 36//5
f 36//5 40//5 35//5
f 41//4 42//4 43//4
f 43//4 42//4 44//4
f 43//4 44//4 45//4
f 45//4 46//4 43//4
f 47//1 48//1 49//1
f 49//1 48//1 50//1
f 51//6 47//6 52//6
f 52//6 47//6 49//6
f 53//3 51//3 54//3
f 54//3 51//3 52//3
f 48//2 53//2 50//2
f 50//2 53//2 54//2
f 50//5 54//5 49//5
f 49//5 54//5 52//5
f 7//2 9//2 8//2
f 8//2 9//2 11//2
f 8//2 11//2 55//2
f 55//2 11//2 56//2
f 56//2 11//2 16//2
f 56//2 16//2 19//2
f 19//2 16//2 17//2
f 17//2 16//2 15//2
f 17//2 15//2 43//2
f 43//2 15//2 9//2
f 43//2 9//2 41//2
f 41//2 9//2 7//2
f 41//2 7//2 1//2
f 1//2 3//2 41//2
f 41//2 3//2 55//2
f 55//2 3//2 8//2
f 23//2 43//2 24//2
f 24//2 43//2 56//2
f 24//2 56//2 19//2
f 23//2 17//2 43//2
f 31//1 33//1 32//1
f 32//1 33//1 35//1
f 32//1 35//1 57//1
f 57//1 35//1 40//1
f 57//1 40//1 46//1
f 46//1 40//1 39//1
f 46//1 39//1 33//1
f 25//1 43//1 31//1
f 31//1 43//1 46//1
f 31//1 46//1 33//1
f 25//1 27//1 43//1
f 43//1 27//1 56//1
f 56//1 27//1 32//1
f 56//1 32//1 57//1
f 47//5 58//5 48//5
f 48//5 58//5 59//5
f 48//5 59//5 56//5
f 56//5 59//5 60//5
f 56//5 60//5 55//5
f 58//5 47//5 57//5
f 57//5 47//5 51//5
f 57//5 51//5 56//5
f 56//5 51//5 53//5
f 56//5 53//5 48//5
f 58//1 61//1 59//1
f 59//1 61//1 62//1
f 44//2 42//2 63//2
f 63//2 42//2 64//2
f 64//1 42//1 65//1
f 65//1 42//1 60//1
f 60//1 42//1 55//1
f 55//1 42//1 41//1
f 63//1 66//1 44//1
f 44//1 66//1 45//1
f 63//5 64//5 66//5
f 66//5 64//5 67//5
f 67//5 64//5 68//5
f 68//5 64//5 65//5
f 68//3 69//3 67//3
f 67//3 69//3 70//3
f 69//7 71//7 70//7
f 70//7 71//7 72//7
f 71//8 62//8 72//8
f 72//8 62//8 61//8
f 73//9 74//9 75//9
f 75//9 74//9 76//9
f 74//10 77//10 76//10
f 76//10 77//10 78//10
f 77//3 79//3 78//3
f 78//3 79//3 80//3
f 79//4 81//4 80//4
f 80//4 81//4 82//4
f 81//1 73//1 82//1
f 82//1 73//1 75//1
f 72//2 74//2 70//2
f 70//2 74//2 73//2
f 70//2 73//2 67//2
f 67//2 73//2 81//2
f 67//2 81//2 66//2
f 66//2 81//2 79//2
f 66//2 79//2 45//2
f 45//2 79//2 58//2
f 45//2 58//2 57//2
f 72//2 61//2 74//2
f 74//2 61//2 77//2
f 77//2 61//2 58//2
f 77//2 58//2 79//2
f 57//2 46//2 45//2
f 62//6 71//6 76//6
f 76//6 71//6 69//6
f 76//6 69//6 75//6
f 75//6 69//6 68//6
f 75//6 68//6 82//6
f 82//6 68//6 65//6
f 82//6 65//6 80//6
f 80//6 65//6 59//6
f 80//6 59//6 78//6
f 78//6 59//6 62//6
f 78//6 62//6 76//6
f 65//6 60//6 59//6
