# Blender 3.5.1
# www.blender.org
mtllib 3D_2.2_SIM.mtl
o 2.2_SIM
v 0.890000 0.240000 0.810000
v 0.890000 0.240000 0.800000
v 0.890000 1.090000 0.810000
v 0.890000 1.090000 0.800000
v 0.310000 0.240000 0.800000
v 0.310000 1.090000 0.800000
v 0.310000 0.240000 0.810000
v 0.310000 1.090000 0.810000
v 0.290000 0.240000 0.810000
v 0.290000 0.240000 0.800000
v 0.290000 1.090000 0.810000
v 0.290000 1.090000 0.800000
v -0.290000 0.240000 0.800000
v -0.290000 1.090000 0.800000
v -0.290000 0.240000 0.810000
v -0.290000 1.090000 0.810000
v -0.310000 0.240000 0.810000
v -0.310000 0.240000 0.800000
v -0.310000 1.090000 0.810000
v -0.310000 1.090000 0.800000
v -0.890000 0.240000 0.800000
v -0.890000 1.090000 0.800000
v -0.890000 0.240000 0.810000
v -0.890000 1.090000 0.810000
v -0.900000 0.230000 0.830000
v -0.900000 0.230000 0.810000
v 0.900000 0.230000 0.830000
v 0.900000 0.230000 0.810000
v 0.350000 1.100000 0.860000
v 0.350000 1.100000 1.300000
v 0.350000 0.850000 0.860000
v 0.350000 0.850000 1.300000
v 0.850000 1.100000 0.860000
v 0.850000 0.850000 0.860000
v 0.850000 1.100000 1.300000
v 0.850000 0.850000 1.300000
v 0.900000 1.100000 0.810000
v -0.900000 1.100000 0.810000
v -0.900000 1.100000 1.400000
v 0.900000 1.100000 1.400000
v -0.900000 3.013025 1.400000
v 0.900000 3.013025 1.400000
v 0.900000 0.200000 0.830000
v -0.900000 0.200000 0.830000
v 0.900000 0.200000 -1.400000
v -0.900000 0.200000 -1.400000
v 0.900000 2.626004 -1.400000
v -0.900000 2.626004 -1.400000
v 0.900000 3.247537 0.632944
v -0.900000 3.247537 0.632944
v -0.900000 2.804569 -1.500000
v -0.900000 3.456676 0.632944
v 0.900000 2.804569 -1.500000
v 0.900000 3.456676 0.632944
v -0.900000 3.191590 1.500000
v 0.900000 3.191590 1.500000
v -0.900000 0.000000 1.500000
v 0.900000 0.000000 1.500000
v -0.900000 -0.000000 -1.500000
v 0.900000 -0.000000 -1.500000
vn 1.0000 -0.0000 -0.0000
vn -0.0000 -0.0000 -1.0000
vn -1.0000 -0.0000 -0.0000
vn -0.0000 1.0000 -0.0000
vn -0.0000 -1.0000 -0.0000
vn -0.0000 -0.0000 1.0000
vn -0.0000 -0.9563 0.2924
vn -0.0000 -0.9563 -0.2924
vn -0.0000 0.9563 -0.2924
vn -0.0000 0.9563 0.2924
s 0
f 1//1 2//1 3//1
f 3//1 2//1 4//1
f 2//2 5//2 4//2
f 4//2 5//2 6//2
f 5//3 7//3 6//3
f 6//3 7//3 8//3
f 6//4 8//4 4//4
f 4//4 8//4 3//4
f 7//5 5//5 1//5
f 1//5 5//5 2//5
f 9//1 10//1 11//1
f 11//1 10//1 12//1
f 10//2 13//2 12//2
f 12//2 13//2 14//2
f 13//3 15//3 14//3
f 14//3 15//3 16//3
f 14//4 16//4 12//4
f 12//4 16//4 11//4
f 15//5 13//5 9//5
f 9//5 13//5 10//5
f 17//1 18//1 19//1
f 19//1 18//1 20//1
f 18//2 21//2 20//2
f 20//2 21//2 22//2
f 21//3 23//3 22//3
f 22//3 23//3 24//3
f 22//4 24//4 20//4
f 20//4 24//4 19//4
f 23//5 21//5 17//5
f 17//5 21//5 18//5
f 25//5 26//5 27//5
f 27//5 26//5 28//5
f 29//1 30//1 31//1
f 31//1 30//1 32//1
f 33//6 29//6 34//6
f 34//6 29//6 31//6
f 35//3 33//3 36//3
f 36//3 33//3 34//3
f 30//2 35//2 32//2
f 32//2 35//2 36//2
f 36//4 34//4 32//4
f 32//4 34//4 31//4
f 7//2 9//2 8//2
f 8//2 9//2 11//2
f 8//2 11//2 37//2
f 37//2 11//2 16//2
f 37//2 16//2 38//2
f 38//2 16//2 19//2
f 38//2 19//2 24//2
f 9//2 7//2 28//2
f 28//2 7//2 1//2
f 28//2 1//2 3//2
f 28//2 3//2 37//2
f 37//2 3//2 8//2
f 19//2 16//2 17//2
f 17//2 16//2 15//2
f 17//2 15//2 26//2
f 26//2 15//2 9//2
f 26//2 9//2 28//2
f 38//2 24//2 26//2
f 26//2 24//2 23//2
f 26//2 23//2 17//2
f 29//4 38//4 30//4
f 30//4 38//4 39//4
f 30//4 39//4 40//4
f 38//4 29//4 37//4
f 37//4 29//4 33//4
f 37//4 33//4 35//4
f 37//4 35//4 40//4
f 40//4 35//4 30//4
f 39//2 41//2 40//2
f 40//2 41//2 42//2
f 43//2 44//2 27//2
f 27//2 44//2 25//2
f 43//4 45//4 44//4
f 44//4 45//4 46//4
f 45//6 47//6 46//6
f 46//6 47//6 48//6
f 47//7 49//7 48//7
f 48//7 49//7 50//7
f 49//8 42//8 50//8
f 50//8 42//8 41//8
f 51//9 52//9 53//9
f 53//9 52//9 54//9
f 52//10 55//10 54//10
f 54//10 55//10 56//10
f 55//6 57//6 56//6
f 56//6 57//6 58//6
f 57//5 59//5 58//5
f 58//5 59//5 60//5
f 59//2 51//2 60//2
f 60//2 51//2 53//2
f 50//3 52//3 48//3
f 48//3 52//3 51//3
f 48//3 51//3 46//3
f 46//3 51//3 59//3
f 46//3 59//3 44//3
f 44//3 59//3 57//3
f 44//3 57//3 25//3
f 25//3 57//3 39//3
f 25//3 39//3 38//3
f 50//3 41//3 52//3
f 52//3 41//3 55//3
f 55//3 41//3 39//3
f 55//3 39//3 57//3
f 38//3 26//3 25//3
f 42//1 49//1 54//1
f 54//1 49//1 47//1
f 54//1 47//1 53//1
f 53//1 47//1 45//1
f 53//1 45//1 60//1
f 60//1 45//1 43//1
f 60//1 43//1 58//1
f 58//1 43//1 27//1
f 58//1 27//1 40//1
f 40//1 27//1 37//1
f 37//1 27//1 28//1
f 58//1 40//1 56//1
f 56//1 40//1 42//1
f 56//1 42//1 54//1
