# Blender 3.5.1
# www.blender.org
mtllib 3D_6.3.mtl
o 3D_6.3
v -0.060000 0.220000 -0.350000
v -0.060000 0.220000 0.350000
v -0.060000 2.680000 -0.350000
v -0.060000 2.680000 0.350000
v -0.075000 0.220000 -0.350000
v -0.075000 0.220000 0.350000
v -0.075000 2.680000 -0.350000
v -0.075000 2.680000 0.350000
v 0.060000 0.220000 0.350000
v 0.060000 0.220000 -0.350000
v 0.060000 2.680000 0.350000
v 0.060000 2.680000 -0.350000
v 0.075000 0.220000 -0.350000
v 0.075000 0.220000 0.350000
v 0.075000 2.680000 -0.350000
v 0.075000 2.680000 0.350000
v -0.075000 0.200000 0.350000
v -0.075000 0.200000 -0.350000
v -0.075000 2.700000 0.350000
v 0.075000 2.700000 0.350000
v 0.075000 0.200000 0.350000
v 0.075000 2.700000 -0.350000
v 0.075000 0.200000 -0.350000
v -0.075000 2.700000 -0.350000
vn -1.0000 -0.0000 -0.0000
vn -0.0000 1.0000 -0.0000
vn -0.0000 -1.0000 -0.0000
vn 1.0000 -0.0000 -0.0000
vn -0.0000 -0.0000 1.0000
vn -0.0000 -0.0000 -1.0000
s 0
f 1//1 2//1 3//1
f 3//1 2//1 4//1
f 1//2 5//2 2//2
f 2//2 5//2 6//2
f 7//3 3//3 8//3
f 8//3 3//3 4//3
f 9//4 10//4 11//4
f 11//4 10//4 12//4
f 13//2 10//2 14//2
f 14//2 10//2 9//2
f 12//3 15//3 11//3
f 11//3 15//3 16//3
f 6//1 5//1 17//1
f 17//1 5//1 18//1
f 8//5 4//5 19//5
f 19//5 4//5 11//5
f 19//5 11//5 20//5
f 20//5 11//5 16//5
f 11//5 4//5 9//5
f 9//5 4//5 2//5
f 9//5 2//5 21//5
f 21//5 2//5 17//5
f 17//5 2//5 6//5
f 21//5 14//5 9//5
f 16//4 15//4 20//4
f 20//4 15//4 22//4
f 5//6 1//6 18//6
f 18//6 1//6 10//6
f 18//6 10//6 23//6
f 23//6 10//6 13//6
f 10//6 1//6 12//6
f 12//6 1//6 3//6
f 12//6 3//6 22//6
f 22//6 3//6 24//6
f 24//6 3//6 7//6
f 22//6 15//6 12//6
f 13//4 14//4 23//4
f 23//4 14//4 21//4
f 7//1 8//1 24//1
f 24//1 8//1 19//1
f 22//2 24//2 20//2
f 20//2 24//2 19//2
f 18//3 23//3 17//3
f 17//3 23//3 21//3
